PathFileType	4	(X/Y/Z)	TVC_41_BWA_02_walk_RCNL2025.trc
DataRate	CameraRate	NumFrames	NumMarkers	Units	OrigDataRate	OrigDataStartFrame	OrigNumFrames
100	100	7	27	mm	100	133	531
Frame#	Time	R_Shoulder			L_Shoulder			C7			J_Notch			R_Elbow			L_Elbow			R_Wrist			L_Wrist			R_Asis			L_Asis			R_Psis			L_Psis			Sacral			Thoracic			Sternum			R_Thigh_Lateral			R_Knee_Lateral			R_Shank_Lateral			R_Ankle_Lateral			R_Heel			R_Toe			L_Thigh_Lateral			L_Knee_Lateral			L_Shank_Lateral			L_Ankle_Lateral			L_Heel			L_Toe		
		X1	Y1	Z1	X2	Y2	Z2	X3	Y3	Z3	X4	Y4	Z4	X5	Y5	Z5	X6	Y6	Z6	X7	Y7	Z7	X8	Y8	Z8	X9	Y9	Z9	X10	Y10	Z10	X11	Y11	Z11	X12	Y12	Z12	X13	Y13	Z13	X14	Y14	Z14	X15	Y15	Z15	X16	Y16	Z16	X17	Y17	Z17	X18	Y18	Z18	X19	Y19	Z19	X20	Y20	Z20	X21	Y21	Z21	X22	Y22	Z22	X23	Y23	Z23	X24	Y24	Z24	X25	Y25	Z25	X26	Y26	Z26	X27	Y27	Z27
133	1.32000000	-1146.243164	1229.705933	68.938171	-1112.218872	1243.120117	-265.631683	-1177.881958	1295.334106	-97.892090	-1059.446045	1185.156616	-86.636116	-1276.617188	962.937134	90.477364	-1176.283325	955.004028	-330.399567	-1088.377014	884.336243	80.676912	-1084.307007	768.921051	-345.300369	-1149.232666	846.287903	14.811211	-1119.540161	825.940613	-225.699936	-1298.228638	883.492065	-78.009888	-1293.358154	865.650452	-167.533112	-1295.793396	874.571259	-122.771500	-1238.686157	1011.549805	-127.617554	-1046.796997	1000.947449	-101.324364	-1217.806030	631.864380	93.643028	-1220.271851	403.574615	-2.135542	-1251.284058	272.863922	58.100761	-1253.636108	67.434975	-26.050829	-1300.441162	42.206940	-73.439415	-1143.401001	40.999447	-27.455368	-1134.806885	585.131226	-344.393646	-1054.686646	395.875031	-274.888611	-1141.695801	293.447876	-338.321686	-1288.583984	140.112839	-281.146576	-1337.783569	147.249878	-242.638138	-1205.633911	53.028713	-258.812012
134	1.33000000	-1144.248169	1229.013306	68.825729	-1108.641846	1242.196167	-265.545227	-1175.067627	1294.757568	-98.112350	-1057.120605	1184.168335	-86.388580	-1274.946411	962.438477	89.866531	-1171.706177	954.076782	-330.856354	-1086.896606	883.462036	80.561558	-1079.767761	767.847656	-344.835907	-1148.585449	845.890869	14.778964	-1118.369873	825.013062	-225.620239	-1297.178345	883.358093	-78.594826	-1292.065796	865.290222	-168.033829	-1294.622070	874.324158	-123.314327	-1236.922363	1011.245667	-128.164383	-1045.116699	999.836914	-100.993668	-1218.067261	631.989746	93.739708	-1220.200317	403.448273	-1.937698	-1251.366089	272.804230	58.280548	-1253.686768	67.282120	-25.912504	-1300.516968	42.145336	-73.346878	-1143.518188	41.016655	-27.391098	-1133.266235	585.022400	-344.571503	-1049.020630	397.195587	-275.120239	-1133.982178	293.174072	-338.371979	-1275.775635	135.451355	-280.088806	-1325.059448	140.246323	-241.005066	-1188.664185	53.056633	-258.952759
135	1.34000000	-1142.340698	1228.384277	68.555328	-1105.080688	1241.308716	-265.603546	-1172.300781	1294.226685	-98.496605	-1054.842407	1183.232422	-86.268784	-1273.373657	962.034729	89.057190	-1167.095093	953.188538	-331.455231	-1085.489746	882.754852	80.206444	-1075.156860	766.831635	-344.476776	-1147.938721	845.560303	14.654055	-1117.117798	824.168335	-225.622192	-1296.120605	883.225708	-79.280098	-1290.755737	864.943909	-168.624557	-1293.438171	874.084808	-123.952328	-1235.174805	1010.969177	-128.846558	-1043.457764	998.784912	-100.769829	-1218.315918	632.158081	93.753464	-1220.073853	403.356354	-1.792675	-1251.409424	272.798279	58.420330	-1253.718140	67.166763	-25.765804	-1300.574097	42.120209	-73.246109	-1143.616699	41.036320	-27.319696	-1132.160645	584.795105	-344.760712	-1043.706543	398.490723	-275.338715	-1126.351318	292.769775	-338.465576	-1262.295776	130.301544	-279.248413	-1311.588379	132.648911	-239.651505	-1171.077637	52.841988	-259.231567
136	1.35000000	-1140.524536	1227.822021	68.128456	-1101.541382	1240.461914	-265.804718	-1169.584961	1293.744385	-99.042892	-1052.611450	1182.354980	-86.274895	-1271.910400	961.727966	88.059898	-1162.464355	952.341553	-332.188782	-1084.171265	882.219360	79.624096	-1070.479736	765.881927	-344.219498	-1147.284180	845.293152	14.432169	-1115.766846	823.410828	-225.706009	-1295.047241	883.093018	-80.071327	-1289.416748	864.610413	-169.312241	-1292.231995	873.851715	-124.691784	-1233.438232	1010.720581	-129.663361	-1041.816162	997.798157	-100.651581	-1218.530640	632.355286	93.673828	-1219.889282	403.292145	-1.711903	-1251.409180	272.836975	58.511005	-1253.732666	67.083206	-25.618696	-1300.616455	42.121246	-73.144661	-1143.695923	41.057228	-27.244278	-1131.422241	584.436462	-344.973969	-1038.742310	399.736328	-275.544403	-1118.825439	292.238159	-338.604462	-1248.244507	124.789047	-278.659973	-1297.458496	124.627914	-238.626114	-1153.069702	52.424198	-259.664703
137	1.36000000	-1138.802246	1227.329102	67.547432	-1098.030029	1239.659424	-266.145935	-1166.923340	1293.312744	-99.748215	-1050.427979	1181.541626	-86.404633	-1270.565430	961.516602	86.886490	-1157.828491	951.537537	-333.048859	-1082.953857	881.852173	78.832771	-1065.743225	765.006561	-344.060287	-1146.613892	845.085938	14.108871	-1114.302002	822.742615	-225.872101	-1293.950073	882.958313	-80.974869	-1288.037598	864.288574	-170.104706	-1290.993835	873.623444	-125.539787	-1231.707031	1010.499878	-130.613968	-1040.187988	996.882812	-100.637733	-1218.688110	632.567993	93.491219	-1219.643677	403.249207	-1.706349	-1251.361084	272.911255	58.544315	-1253.732788	67.025772	-25.479216	-1300.647583	42.138683	-73.049599	-1143.755371	41.078053	-27.167864	-1130.971558	583.938171	-345.224335	-1034.121460	400.908875	-275.737793	-1111.428955	291.584503	-338.789459	-1233.753052	119.045639	-278.348969	-1282.796021	116.358192	-237.965530	-1134.851685	51.846916	-260.263702
138	1.37000000	-1137.176147	1226.906860	66.815353	-1094.552246	1238.905518	-266.623840	-1164.318848	1292.934082	-100.608604	-1048.291748	1180.797485	-86.655396	-1269.344360	961.396362	85.549278	-1153.201294	950.777954	-334.026794	-1081.847534	881.642059	77.855576	-1060.955322	764.212585	-343.995239	-1145.920288	844.935181	13.679681	-1112.710815	822.163635	-226.121094	-1292.821411	882.820435	-81.997658	-1286.607666	863.977173	-171.010544	-1289.714539	873.398804	-126.504101	-1229.976074	1010.307007	-131.697449	-1038.569458	996.044495	-100.727226	-1218.763794	632.784363	93.196999	-1219.334961	403.221619	-1.786329	-1251.261475	273.012604	58.512764	-1253.720947	66.989159	-25.355410	-1300.671021	42.163891	-72.967598	-1143.794434	41.097435	-27.093245	-1130.719360	583.297241	-345.524170	-1029.833130	401.986267	-275.919464	-1104.187744	290.816101	-339.020203	-1218.981812	113.203354	-278.329346	-1267.764038	108.013710	-237.691696	-1116.647217	51.153954	-261.032410
139	1.38000000	-1135.647461	1226.556030	65.935966	-1091.113403	1238.204468	-267.234344	-1161.774536	1292.609741	-101.619240	-1046.202637	1180.127441	-87.024231	-1268.249634	961.360413	84.060196	-1148.595947	950.064453	-335.113678	-1080.859314	881.571045	76.719316	-1056.125122	763.506287	-344.020309	-1145.196777	844.837585	13.140166	-1110.982666	821.672485	-226.453918	-1291.654541	882.678833	-83.146950	-1285.116577	863.675659	-172.038849	-1288.385559	873.177246	-127.592899	-1228.239868	1010.141907	-132.912827	-1036.956787	995.288391	-100.919167	-1218.733032	632.994507	92.783508	-1218.961426	403.204529	-1.961360	-1251.108032	273.133759	58.409462	-1253.699097	66.968842	-25.255337	-1300.689575	42.189850	-72.905251	-1143.813110	41.113998	-27.022850	-1130.571045	582.516663	-345.884125	-1025.863281	402.948700	-276.090149	-1097.129517	289.942291	-339.295319	-1204.116821	107.389191	-278.601746	-1252.559326	99.762283	-237.809250	-1098.688477	50.385937	-261.964905
